<?xml version="1.0" encoding="UTF-8"?><svg fill="none" viewBox="0 0 1000 700" xmlns="http://www.w3.org/2000/svg"><path d="m189.77 275.28c-0.15-2.453-0.21-4.906-0.21-7.389 0-71.798 58.229-129.98 130.01-129.98 34.351 0 65.56 13.312 88.809 35.061 40.275-80.623 123.52-135.97 219.75-135.97 135.58 0 245.48 109.88 245.48 245.4 0 4.607-0.15 9.214-0.389 13.761 73.788 25.429 126.78 95.431 126.78 177.82 0 103.84-84.201 188.02-188.06 188.02-213.62 0-288.96-0.299-394.82-0.509-25.763 0.389-34.141-20.851-19.988-37.753l110.26-121.04c50.718 40.565 27.768 12.804 30.102 55.852 0.568 10.261 5.625 19.236 13.165 25.07 2.304 1.825 4.878 3.32 7.63 4.457 4.608 1.945 9.725 2.902 15.051 2.603 3.052-0.15 5.985-0.718 8.738-1.646 6.553-1.884 13.285-5.594 19.748-11.457 47.337-42.87 80.461-79.157 122.41-129.92 3.74-4.518 6.403-9.065 8.199-13.582 2.513-5.056 3.77-10.83 3.441-16.873-1.018-18.787-17.056-33.176-35.847-32.159-9.845 0.538-13.226 4.727-20.377 5.205-6.044 0.329-8.767-2.094-13.435-8.167-29.533-37.484-50.12-57.019-89.079-84.572-6.313-4.337-8.857-6.94-8.857-12.983 0.12-7.18 4.13-10.77 4.16-20.642 0.059-18.787-15.171-34.074-33.962-34.104-6.044 0-11.73 1.556-16.667 4.308-4.398 2.034-8.827 4.936-13.136 8.915-48.533 44.515-83.094 79.486-123.43 128.94-5.505 6.761-8.857 13.671-10.413 20.313-0.748 2.812-1.167 5.773-1.167 8.795 0 5.325 1.197 10.381 3.382 14.898 1.286 2.722 2.932 5.205 4.847 7.389 6.224 7.24 15.44 11.817 25.733 11.847 43.118 0.119 14.213-21.36 57.361 27.163l-125.88 132.98c-40.814 41.254-90.305 66.802-148.98 65.874-29.952 0-58.379-7.598-83.663-20.911-63.136-31.561-106.46-96.867-106.46-172.28 0-105.42 84.68-191.1 189.77-192.72z" clip-rule="evenodd" fill="url(#a)" fill-rule="evenodd"/><defs><linearGradient id="a" x1="297.2" x2="749.13" y1="683.53" y2="207.58" gradientUnits="userSpaceOnUse"><stop stop-color="#2D6CB5" offset="0"/><stop stop-color="#00B1E8" offset="1"/></linearGradient></defs></svg>